<?xml version="1.0" encoding="utf-8"?>
<!-- Generator: Adobe Illustrator 24.0.0, SVG Export Plug-In . SVG Version: 6.00 Build 0)  -->
<svg version="1.1" xmlns="http://www.w3.org/2000/svg" xmlns:xlink="http://www.w3.org/1999/xlink" x="0px" y="0px"
	 viewBox="0 0 150 160" style="enable-background:new 0 0 150 160;" xml:space="preserve">
<style type="text/css">
	.st0{fill:#FFFFFF;stroke:#000000;stroke-width:0.6987;stroke-miterlimit:10;}
	.st1{fill:none;stroke:#000000;stroke-width:5;stroke-linecap:round;stroke-linejoin:round;stroke-miterlimit:10;}
</style>
<g id="Layer_2">
	<rect width="150" height="160"/>
</g>
<g id="Layer_1">
	<path class="st0" d="M0,160c0,0,14.2-19.4,19-48.9s14.8-70.4,21.1-80.6c7.1-11.6,18.2-20.2,33.2-21.1s34.1,6.9,40.9,18.6
		c7.3,12.6,7.3,23.5,8.1,45.4c0.8,21.9,3.6,66.4,13,73.7c9.3,7.3,9.7,12.8,14.8,12.9c0,0-21,1.3-26.5-4.8
		c-6.9-7.7-21.1-6.9-29.6,0.8c-6.2,5.6-25.9,2.2-31.6-2c-11.3-8.5-24.3-5.7-30-0.4C26.4,159.2,15.8,159.9,0,160z"/>
	<ellipse transform="matrix(0.3242 -0.946 0.946 0.3242 -4.8827 92.2343)" cx="62.1" cy="49.5" rx="13" ry="7"/>
	<ellipse transform="matrix(0.946 -0.3242 0.3242 0.946 -10.9309 33.4629)" cx="95" cy="49.5" rx="7" ry="13"/>
	<path class="st1" d="M54.8,75.9c0,0,4.9,9.9,22.7,9.9s24.1-9.1,24.1-9.1"/>
</g>
</svg>
