<?xml version="1.0" encoding="utf-8"?>
<!-- Generator: Adobe Illustrator 24.0.0, SVG Export Plug-In . SVG Version: 6.00 Build 0)  -->
<svg version="1.1" id="Layer_1" xmlns="http://www.w3.org/2000/svg" xmlns:xlink="http://www.w3.org/1999/xlink" x="0px" y="0px"
	 viewBox="0 0 200 200" style="enable-background:new 0 0 200 200;" xml:space="preserve">
<style type="text/css">
	.st0{fill:#8E320B;}
	.st1{fill:#662D91;}
	.st2{fill:#FED6AE;}
	.st3{fill:none;stroke:#000000;stroke-width:3.75;stroke-linecap:round;stroke-linejoin:round;stroke-miterlimit:10;}
	.st4{fill:#AB3F18;}
	.st5{fill:none;stroke:#000000;stroke-width:6.25;stroke-linecap:round;stroke-linejoin:round;stroke-miterlimit:10;}
</style>
<g id="Layer_2_1_">
	<rect width="200" height="200"/>
</g>
<g id="Layer_1_1_">
	<ellipse class="st0" cx="102.7" cy="114.8" rx="47.1" ry="56.4"/>
	<path class="st1" d="M91.8,129.5c0,0-35,11-51.5,70.5h120.2c0,0-0.9-49.9-49.6-70.5H91.8z"/>
	<circle class="st2" cx="100" cy="77.6" r="47.9"/>
	<circle cx="88.8" cy="89.1" r="4.5"/>
	<circle cx="116.4" cy="89.1" r="4.5"/>
	<path class="st2" d="M101.4,139.1L101.4,139.1c-5.2,0-9.6-4.2-9.6-9.6v-12.8h19.1v12.9C110.9,134.9,106.6,139.1,101.4,139.1z"/>
	<g>
		<path class="st3" d="M100.4,151.8c0,0-8.4-5.9-11.5-2.6C85.5,152.6,93.8,155.4,100.4,151.8z"/>
		<path class="st3" d="M95.2,175.5c0,0,3.1-13.3,6.1-22"/>
		<path class="st3" d="M100.4,151.8c0,0,8.4-5.9,11.5-2.6C115.1,152.6,106.9,155.4,100.4,151.8z"/>
		<path class="st3" d="M110.9,181.8c0,0-6.5-19.6-9.4-28.4"/>
	</g>
	<path d="M91.8,129.5c0,0-14.6,3.9-21,14.4c0,0,11,12.2,30.6-4.8c0,0,4.9,14.6,36,9c0,0-5-13.4-26.4-18.6c0,0-1,7-9.6,7
		S91.8,129.5,91.8,129.5z"/>
	<path class="st4" d="M82.4,67c0,0-1.5,1.5,3.4,6.5c0,0,10.5-10.1,11.9-13.5c0,0,3.6,13.8,18.8,18.9c0,0-0.5-7.5,0-9.6
		c0,0,4.6,19.9,16,21.6c0,0-0.8-6.8,1.5-9.3c0,0,2.5,5.8,2.4,14.9c-0.4,17.9-10.8,27-15.4,25.6c0,0,6.4,0.1,7.6-1.9
		c0,0-4.1,11.1-12.4,12.6c0,0,9,2.6,11.6,0c0,0-1,9-8.8,17c0,0,11-0.8,14.4-6.5c0,0,4.6,11.9-2.6,18c0,0,11.9-2.9,15.8-13.6
		c0,0,3.4,0.5,3.4,5.6c0,0,7.8-3.6,7-11.6c0,0,2.1,2.4,2.1,5.9c0,0,6.5-8.2,0-18.8c0,0,6.6,3.4,6.6,5.6c0,0,1.1-16.8-6.6-25.5
		c0,0,7.2,1.5,6.8,3.4c0,0,0.2-10.5-8-27c0,0,4.6,1.5,5.4,4.9c0,0,0.4-20.2-13.1-27.9c0,0,7.8,2,9,4.6c0,0-15-28-36.6-35.1
		c0,0-15.2-3.4-21.4-2.2c-6.1,1.1-22.9-0.1-34.8,7.5c0,0-9.5,1.5-17.2,11.2c0,0,3.9-1.1,6.1-1.5c0,0-13.6,9.6-13.9,19
		c0,0,5.1-4.6,7-5.4c0,0-9.8,15.2-9.8,30.1c0,0,2-3.6,4.1-4.9c0,0-4.9,19.6-1.5,31.1c0,0,1.5-3.4,3.9-4.9c0,0-1.2,19.9,5.4,28.1
		c0,0,0-4.6,1.5-7.5c0,0-1.2,12.9,4.1,16.8c0,0,1.5-5.6,2.9-7.5c0,0-1.8,8.2,4.6,13.4c0,0,0.5-13.1,4.4-17.2c0,0,5.9,5,9.5,5.8
		c0,0-9.3-15.8-5.4-19.4c0,0,8.2,2.1,12.4,4.2c0,0-15.8-14.8-12.4-19.1c0,0,3.2,3.9,5.4,3.4c0,0-6.1-9.8-4.9-15.5
		c0,0,0.3,0.2,2.6,1.8c0,0-5.6-9.5-3.4-15.5c0,0,0.2,2.4,4.1,2.9C75.8,86.8,79.4,75,82.4,67z"/>
	<g>
		<path class="st1" d="M135.6,39.6c-15.1,6.4-15.2,2.6-33.5,1s-22.9,5.1-32.4-6.9c-4.5-5.8-3.5-9.8,4.1-9.1c4,0.4,9.9,3,16.6,6.9
			c4.2,2.4,8.6,4.6,13,5.2c19.5,3,27.9-9,33-5.4C138.8,32.9,141.2,37.2,135.6,39.6z"/>
		<path class="st1" d="M111.5,4.6c0,0,15-0.4,31.6,27.9L127.9,23l2.5,10.5c0,0-28.5,18.5-51.6-3.6C78.6,29.9,92.4,15,111.5,4.6z"/>
	</g>
	<path class="st5" d="M82.9,24.4c0,0,22.5,13.4,47,3.9"/>
</g>
</svg>
