<?xml version="1.0" encoding="utf-8"?>
<!-- Generator: Adobe Illustrator 24.0.0, SVG Export Plug-In . SVG Version: 6.00 Build 0)  -->
<svg version="1.1" id="Layer_1" xmlns="http://www.w3.org/2000/svg" xmlns:xlink="http://www.w3.org/1999/xlink" x="0px" y="0px"
	 viewBox="0 0 200 200" style="enable-background:new 0 0 200 200;" xml:space="preserve">
<style type="text/css">
	.st0{fill:#009444;}
	.st1{fill:#3C2415;}
	.st2{fill:#939598;}
	.st3{fill:#754C29;}
	.st4{fill:none;stroke:#000000;stroke-width:6.2492;stroke-linecap:round;stroke-linejoin:round;stroke-miterlimit:10;}
</style>
<g id="Layer_2_1_">
	<rect width="200" height="200"/>
</g>
<g id="Layer_1_1_">
	<path class="st0" d="M133.8,134.5H66.1c-7.7,0-14-6.2-14-14V25.7c0-7.7,6.2-14,14-14h67.6c7.7,0,14,6.2,14,14v94.7
		C147.8,128.2,141.5,134.5,133.8,134.5z"/>
	<path class="st1" d="M52.1,37.6V25.7c0-7.7,6.2-14,14-14h67.6c7.7,0,14,6.2,14,14v11.9l-10.5-10.4l-6.2,8.9L121.3,26l-6.6,10.4
		L102.8,27l-5,9.1l-5-10l-7.1,9.4l-5.5-10.9l-6.4,10L63.5,23.7L52.1,37.6z"/>
	<path class="st2" d="M163.9,200.1H35.6v-25.9c0-32.7,26.6-33.4,59.4-33.4h9.5c32.7,0,59.4,0.6,59.4,33.4V200.1z"/>
	<path class="st3" d="M84.3,141c-27.6,0.5-48.6,4.1-48.6,33.2v25.9h47.7L84.3,141z"/>
	<path class="st3" d="M115.6,141c27.5,0.5,48.2,4.4,48.2,33.2v25.9h-45.1L115.6,141z"/>
	<path class="st3" d="M16.2,200.1h25.1v-36c0-7-5.6-12.6-12.6-12.6l0,0c-7,0-12.6,5.6-12.6,12.6v36H16.2z"/>
	<path class="st3" d="M158.9,200.1H184v-36c0-7-5.6-12.6-12.6-12.6l0,0c-7,0-12.6,5.6-12.6,12.6v36H158.9z"/>
	<path class="st4" d="M135.3,54.6v2.5c0,5.7-1,10.4-15.4,10.4S100,63.4,100,63.4s-10.9,4.1-21.1,4.1s-14.1-4.6-14.1-10.4v-2.5"/>
	<path class="st0" d="M99.8,157.6L99.8,157.6c-6.5,0-11.9-5.2-11.9-11.9v-16.9h23.6v16.9C111.6,152.2,106.3,157.6,99.8,157.6z"/>
	<path d="M93.8,66.5C93.9,72,89.3,76.6,83.4,77c-5.9,0.4-10.9-3.9-11-9.2C72.3,65.2,93.8,66.5,93.8,66.5z"/>
	<path d="M127,66.7c0.1,5.5-4.6,10-10.5,10.2c-5.9,0.1-10.7-4.1-10.9-9.6C105.5,65,127,66.7,127,66.7z"/>
</g>
</svg>
