<?xml version="1.0" encoding="utf-8"?>
<!-- Generator: Adobe Illustrator 24.0.0, SVG Export Plug-In . SVG Version: 6.00 Build 0)  -->
<svg version="1.1" id="Layer_1" xmlns="http://www.w3.org/2000/svg" xmlns:xlink="http://www.w3.org/1999/xlink" x="0px" y="0px"
	 viewBox="0 0 200 200" style="enable-background:new 0 0 200 200;" xml:space="preserve">
<style type="text/css">
	.st0{fill:#FFFFFF;stroke:#000000;stroke-width:0.8732;stroke-miterlimit:10;}
	.st1{fill:none;stroke:#000000;stroke-width:6.2491;stroke-linecap:round;stroke-linejoin:round;stroke-miterlimit:10;}
</style>
<g id="Layer_2_1_">
	<rect width="200" height="200"/>
</g>
<g id="Layer_1_1_">
	<path class="st0" d="M6.2,200c0,0,17.7-24.2,23.7-61.1s18.5-88,26.4-100.7c8.9-14.5,22.7-25.2,41.5-26.4s42.6,8.6,51.1,23.2
		c9.1,15.7,9.1,29.4,10.1,56.7s4.5,83,16.2,92.1c11.6,9.1,12.1,16,18.5,16.1c0,0-26.2,1.6-33.1-6c-8.6-9.6-26.4-8.6-37,1
		c-7.7,7-32.4,2.7-39.5-2.5c-14.1-10.6-30.4-7.1-37.5-0.5C39.2,199,25.9,199.8,6.2,200z"/>
	<ellipse transform="matrix(0.3242 -0.946 0.946 0.3242 -1.9437 121.1003)" cx="83.8" cy="61.9" rx="16.2" ry="8.7"/>
	<ellipse transform="matrix(0.946 -0.3242 0.3242 0.946 -13.3062 43.8386)" cx="124.9" cy="61.9" rx="8.7" ry="16.2"/>
	<path class="st1" d="M74.7,94.9c0,0,6.1,12.4,28.4,12.4s30.1-11.4,30.1-11.4"/>
</g>
</svg>
