<?xml version="1.0" encoding="utf-8"?>
<!-- Generator: Adobe Illustrator 24.0.0, SVG Export Plug-In . SVG Version: 6.00 Build 0)  -->
<svg version="1.1" id="Layer_1" xmlns="http://www.w3.org/2000/svg" xmlns:xlink="http://www.w3.org/1999/xlink" x="0px" y="0px"
	 viewBox="0 0 200 200" style="enable-background:new 0 0 200 200;" xml:space="preserve">
<style type="text/css">
	.st0{fill:#FFFFFF;}
	.st1{fill:none;stroke:#000000;stroke-width:6.25;stroke-linecap:round;stroke-linejoin:round;stroke-miterlimit:10;}
	.st2{fill:none;stroke:#FFFFFF;stroke-width:10;stroke-linecap:round;stroke-miterlimit:10;}
</style>
<g id="Layer_2_1_">
	<rect width="200" height="200"/>
</g>
<g id="Layer_1_1_">
	<ellipse class="st0" cx="100.1" cy="56.8" rx="47.9" ry="45"/>
	<ellipse transform="matrix(0.3242 -0.946 0.946 0.3242 14.0433 107.5567)" cx="82.3" cy="43.9" rx="16.3" ry="10.9"/>
	<ellipse transform="matrix(0.946 -0.3242 0.3242 0.946 -7.8492 40.8958)" cx="118.8" cy="44" rx="10.9" ry="16.3"/>
	<path class="st1" d="M70.8,74c0,0,6.1,12.4,28.4,12.4S129.3,75,129.3,75"/>
	<line class="st1" x1="78.3" y1="74.4" x2="69.3" y2="81.9"/>
	<line class="st1" x1="87.9" y1="80.1" x2="83.4" y2="89.6"/>
	<line class="st1" x1="98.6" y1="81.5" x2="97.3" y2="91.9"/>
	<line class="st1" x1="110.4" y1="80.4" x2="112.9" y2="90.6"/>
	<line class="st1" x1="120.1" y1="76.6" x2="126.2" y2="85.1"/>
	<g>
		
			<rect x="166.6" y="126.5" transform="matrix(0.9868 -0.1622 0.1622 0.9868 -22.4277 29.7812)" class="st0" width="9.1" height="51.5"/>
		<circle class="st0" cx="180.1" cy="178" r="4.9"/>
		<circle class="st0" cx="170.9" cy="179.5" r="4.9"/>
		<circle class="st0" cx="171.4" cy="125.6" r="4.9"/>
		<circle class="st0" cx="162.4" cy="127.1" r="4.9"/>
	</g>
	<path class="st2" d="M108.6,122c0,0,17.9,14.8,39.3-1.2"/>
	<path class="st2" d="M108.6,141.9c0,0,17.9,14.8,39.3-1.2"/>
	<path class="st2" d="M108.6,161.8c0,0,17.9,14.8,39.3-1.2"/>
	<path class="st2" d="M108.6,181.6c0,0,17.9,14.8,39.3-1.2"/>
	<g>
		
			<rect x="5.3" y="147.6" transform="matrix(0.1622 -0.9868 0.9868 0.1622 -124.1296 158.1107)" class="st0" width="51.5" height="9.1"/>
		<circle class="st0" cx="22.2" cy="178" r="4.9"/>
		<circle class="st0" cx="31.2" cy="179.5" r="4.9"/>
		<circle class="st0" cx="30.7" cy="125.6" r="4.9"/>
		<circle class="st0" cx="39.8" cy="127.1" r="4.9"/>
	</g>
	<path class="st2" d="M93.6,122c0,0-17.9,14.8-39.3-1.2"/>
	<path class="st2" d="M93.6,141.9c0,0-17.9,14.8-39.3-1.2"/>
	<path class="st2" d="M93.6,161.8c0,0-17.9,14.8-39.3-1.2"/>
	<path class="st2" d="M93.6,181.6c0,0-17.9,14.8-39.3-1.2"/>
</g>
</svg>
