<?xml version="1.0" encoding="utf-8"?>
<!-- Generator: Adobe Illustrator 24.0.0, SVG Export Plug-In . SVG Version: 6.00 Build 0)  -->
<svg version="1.1" xmlns="http://www.w3.org/2000/svg" xmlns:xlink="http://www.w3.org/1999/xlink" x="0px" y="0px"
	 viewBox="0 0 150 160" style="enable-background:new 0 0 150 160;" xml:space="preserve">
<style type="text/css">
	.st0{fill:#FFFFFF;}
	.st1{fill:none;stroke:#000000;stroke-width:5;stroke-linecap:round;stroke-linejoin:round;stroke-miterlimit:10;}
	.st2{fill:none;stroke:#FFFFFF;stroke-width:8;stroke-linecap:round;stroke-miterlimit:10;}
</style>
<g id="Layer_2">
	<rect width="150" height="160"/>
</g>
<g id="Layer_1">
	<ellipse class="st0" cx="75" cy="45.4" rx="38.3" ry="36"/>
	<ellipse transform="matrix(0.3242 -0.946 0.946 0.3242 7.7854 81.2645)" cx="60.8" cy="35.2" rx="13" ry="8.7"/>
	<ellipse transform="matrix(0.946 -0.3242 0.3242 0.946 -6.5451 31.083)" cx="90" cy="35.2" rx="8.7" ry="13"/>
	<path class="st1" d="M51.6,59.2c0,0,4.9,9.9,22.7,9.9S98.4,60,98.4,60"/>
	<line class="st1" x1="57.6" y1="59.5" x2="50.4" y2="65.5"/>
	<line class="st1" x1="65.3" y1="64.1" x2="61.7" y2="71.7"/>
	<line class="st1" x1="73.8" y1="65.2" x2="72.8" y2="73.5"/>
	<line class="st1" x1="83.3" y1="64.3" x2="85.3" y2="72.5"/>
	<line class="st1" x1="91" y1="61.3" x2="95.9" y2="68.1"/>
	<g>
		
			<rect x="111.3" y="118.1" transform="matrix(0.1622 0.9868 -0.9868 0.1622 230.6532 -28.1044)" class="st0" width="41.2" height="7.3"/>
		<circle class="st0" cx="139" cy="142.4" r="3.9"/>
		<circle class="st0" cx="131.7" cy="143.6" r="3.9"/>
		<circle class="st0" cx="132.1" cy="100.5" r="3.9"/>
		<circle class="st0" cx="124.9" cy="101.7" r="3.9"/>
	</g>
	<path class="st2" d="M81.8,97.6c0,0,14.3,11.8,31.4-1"/>
	<path class="st2" d="M81.8,113.5c0,0,14.3,11.8,31.4-1"/>
	<path class="st2" d="M81.8,129.4c0,0,14.3,11.8,31.4-1"/>
	<path class="st2" d="M81.8,145.3c0,0,14.3,11.8,31.4-1"/>
	<g>
		
			<rect x="-0.9" y="118.1" transform="matrix(-0.1622 0.9868 -0.9868 -0.1622 143.1303 122.0315)" class="st0" width="41.2" height="7.3"/>
		<circle class="st0" cx="12.7" cy="142.4" r="3.9"/>
		<circle class="st0" cx="19.9" cy="143.6" r="3.9"/>
		<circle class="st0" cx="19.5" cy="100.5" r="3.9"/>
		<circle class="st0" cx="26.8" cy="101.7" r="3.9"/>
	</g>
	<path class="st2" d="M69.8,97.6c0,0-14.3,11.8-31.4-1"/>
	<path class="st2" d="M69.8,113.5c0,0-14.3,11.8-31.4-1"/>
	<path class="st2" d="M69.8,129.4c0,0-14.3,11.8-31.4-1"/>
	<path class="st2" d="M69.8,145.3c0,0-14.3,11.8-31.4-1"/>
</g>
</svg>
