<?xml version="1.0" encoding="utf-8"?>
<!-- Generator: Adobe Illustrator 24.0.0, SVG Export Plug-In . SVG Version: 6.00 Build 0)  -->
<svg version="1.1" xmlns="http://www.w3.org/2000/svg" xmlns:xlink="http://www.w3.org/1999/xlink" x="0px" y="0px"
	 viewBox="0 0 150 160" style="enable-background:new 0 0 150 160;" xml:space="preserve">
<style type="text/css">
	.st0{fill:#009444;}
	.st1{fill:#3C2415;}
	.st2{fill:#939598;}
	.st3{fill:#754C29;}
	.st4{fill:none;stroke:#000000;stroke-width:5;stroke-linecap:round;stroke-linejoin:round;stroke-miterlimit:10;}
</style>
<g id="Layer_2">
	<rect width="150" height="160"/>
</g>
<g id="Layer_1">
	<path class="st0" d="M102,107.6H47.9c-6.2,0-11.2-5-11.2-11.2V20.6c0-6.2,5-11.2,11.2-11.2H102c6.2,0,11.2,5,11.2,11.2v75.8
		C113.2,102.6,108.2,107.6,102,107.6z"/>
	<path class="st1" d="M36.7,30.1v-9.5c0-6.2,5-11.2,11.2-11.2H102c6.2,0,11.2,5,11.2,11.2v9.5l-8.4-8.3l-5,7.1L92,20.8l-5.3,8.3
		l-9.5-7.5l-4,7.3l-4-8l-5.7,7.5l-4.4-8.7l-5.1,8L45.8,19L36.7,30.1z"/>
	<path class="st2" d="M126.1,160.1H23.5v-20.7c0-26.2,21.3-26.7,47.5-26.7h7.6c26.2,0,47.5,0.5,47.5,26.7V160.1z"/>
	<path class="st3" d="M62.4,112.8c-22.1,0.4-38.9,3.3-38.9,26.6v20.7h38.2L62.4,112.8z"/>
	<path class="st3" d="M87.5,112.8c22,0.4,38.6,3.5,38.6,26.6v20.7H90L87.5,112.8z"/>
	<path class="st3" d="M7.9,160.1H28v-28.8c0-5.6-4.5-10.1-10.1-10.1h0c-5.6,0-10.1,4.5-10.1,10.1V160.1z"/>
	<path class="st3" d="M122.1,160.1h20.1v-28.8c0-5.6-4.5-10.1-10.1-10.1h0c-5.6,0-10.1,4.5-10.1,10.1V160.1z"/>
	<path class="st4" d="M103.2,43.7v2c0,4.6-0.8,8.3-12.3,8.3S75,50.7,75,50.7S66.3,54,58.1,54s-11.3-3.7-11.3-8.3v-2"/>
	<path class="st0" d="M74.8,126.1L74.8,126.1c-5.2,0-9.5-4.2-9.5-9.5v-13.5h18.9v13.5C84.3,121.8,80,126.1,74.8,126.1z"/>
	<path d="M70,53.2c0.1,4.4-3.6,8.1-8.3,8.4c-4.7,0.3-8.7-3.1-8.8-7.4C52.8,52.2,70,53.2,70,53.2z"/>
	<path d="M96.6,53.4c0.1,4.4-3.7,8-8.4,8.2c-4.7,0.1-8.6-3.3-8.7-7.7C79.4,52,96.6,53.4,96.6,53.4z"/>
</g>
</svg>
