<?xml version="1.0" encoding="utf-8"?>
<!-- Generator: Adobe Illustrator 24.0.0, SVG Export Plug-In . SVG Version: 6.00 Build 0)  -->
<svg version="1.1" xmlns="http://www.w3.org/2000/svg" xmlns:xlink="http://www.w3.org/1999/xlink" x="0px" y="0px"
	 viewBox="0 0 150 160" style="enable-background:new 0 0 150 160;" xml:space="preserve">
<style type="text/css">
	.st0{fill:#8E320B;}
	.st1{fill:#662D91;}
	.st2{fill:#FED6AE;}
	.st3{fill:none;stroke:#000000;stroke-width:3;stroke-linecap:round;stroke-linejoin:round;stroke-miterlimit:10;}
	.st4{fill:#AB3F18;}
	.st5{fill:none;stroke:#000000;stroke-width:5;stroke-linecap:round;stroke-linejoin:round;stroke-miterlimit:10;}
</style>
<g id="Layer_2">
	<rect width="150" height="160"/>
</g>
<g id="Layer_1">
	<ellipse class="st0" cx="77.2" cy="91.8" rx="37.7" ry="45.1"/>
	<path class="st1" d="M68.4,103.6c0,0-28,8.8-41.2,56.4h96.2c0,0-0.7-39.9-39.7-56.4H68.4z"/>
	<circle class="st2" cx="75" cy="62.1" r="38.3"/>
	<circle cx="66" cy="71.3" r="3.6"/>
	<circle cx="88.1" cy="71.3" r="3.6"/>
	<path class="st2" d="M76.1,111.3L76.1,111.3c-4.2,0-7.7-3.4-7.7-7.7V93.4h15.3v10.3C83.7,107.9,80.3,111.3,76.1,111.3z"/>
	<g>
		<path class="st3" d="M75.3,121.4c0,0-6.7-4.7-9.2-2.1C63.4,122.1,70,124.3,75.3,121.4z"/>
		<path class="st3" d="M71.2,140.4c0,0,2.5-10.6,4.9-17.6"/>
		<path class="st3" d="M75.3,121.4c0,0,6.7-4.7,9.2-2.1C87.1,122.1,80.5,124.3,75.3,121.4z"/>
		<path class="st3" d="M83.7,145.4c0,0-5.2-15.7-7.5-22.7"/>
	</g>
	<path d="M68.4,103.6c0,0-11.7,3.1-16.8,11.5c0,0,8.8,9.8,24.5-3.8c0,0,3.9,11.7,28.8,7.2c0,0-4-10.7-21.1-14.9c0,0-0.8,5.6-7.7,5.6
		S68.4,103.6,68.4,103.6z"/>
	<path class="st4" d="M60.9,53.6c0,0-1.2,1.2,2.7,5.2c0,0,8.4-8.1,9.5-10.8c0,0,2.9,11,15,15.1c0,0-0.4-6,0-7.7
		c0,0,3.7,15.9,12.8,17.3c0,0-0.6-5.4,1.2-7.4c0,0,2,4.6,1.9,11.9c-0.3,14.3-8.6,21.6-12.3,20.5c0,0,5.1,0.1,6.1-1.5
		c0,0-3.3,8.9-9.9,10.1c0,0,7.2,2.1,9.3,0c0,0-0.8,7.2-7,13.6c0,0,8.8-0.6,11.5-5.2c0,0,3.7,9.5-2.1,14.4c0,0,9.5-2.3,12.6-10.9
		c0,0,2.7,0.4,2.7,4.5c0,0,6.2-2.9,5.6-9.3c0,0,1.7,1.9,1.7,4.7c0,0,5.2-6.6,0-15c0,0,5.3,2.7,5.3,4.5c0,0,0.9-13.4-5.3-20.4
		c0,0,5.8,1.2,5.4,2.7c0,0,0.2-8.4-6.4-21.6c0,0,3.7,1.2,4.3,3.9c0,0,0.3-16.2-10.5-22.3c0,0,6.2,1.6,7.2,3.7c0,0-12-22.4-29.3-28.1
		c0,0-12.2-2.7-17.1-1.8c-4.9,0.9-18.3-0.1-27.8,6c0,0-7.6,1.2-13.8,9c0,0,3.1-0.9,4.9-1.2c0,0-10.9,7.7-11.1,15.2
		c0,0,4.1-3.7,5.6-4.3c0,0-7.8,12.2-7.8,24.1c0,0,1.6-2.9,3.3-3.9c0,0-3.9,15.7-1.2,24.9c0,0,1.2-2.7,3.1-3.9c0,0-1,15.9,4.3,22.5
		c0,0,0-3.7,1.2-6c0,0-1,10.3,3.3,13.4c0,0,1.2-4.5,2.3-6c0,0-1.4,6.6,3.7,10.7c0,0,0.4-10.5,3.5-13.8c0,0,4.7,4,7.6,4.6
		c0,0-7.4-12.6-4.3-15.5c0,0,6.6,1.7,9.9,3.4c0,0-12.6-11.8-9.9-15.3c0,0,2.6,3.1,4.3,2.7c0,0-4.9-7.8-3.9-12.4c0,0,0.2,0.2,2.1,1.4
		c0,0-4.5-7.6-2.7-12.4c0,0,0.2,1.9,3.3,2.3C55.6,69.4,58.5,60,60.9,53.6z"/>
	<g>
		<path class="st1" d="M103.5,31.7c-12.1,5.1-12.2,2.1-26.8,0.8c-14.6-1.3-18.3,4.1-25.9-5.5c-3.6-4.6-2.8-7.8,3.3-7.3
			c3.2,0.3,7.9,2.4,13.3,5.5c3.4,1.9,6.9,3.7,10.4,4.2c15.6,2.4,22.3-7.2,26.4-4.3C106,26.3,108,29.8,103.5,31.7z"/>
		<path class="st1" d="M84.2,3.7c0,0,12-0.3,25.3,22.3l-12.2-7.6l2,8.4c0,0-22.8,14.8-41.3-2.9C57.9,23.9,68.9,12,84.2,3.7z"/>
	</g>
	<path class="st5" d="M61.3,19.5c0,0,18,10.7,37.6,3.1"/>
</g>
</svg>
