<?xml version="1.0" encoding="utf-8"?>
<!-- Generator: Adobe Illustrator 24.0.0, SVG Export Plug-In . SVG Version: 6.00 Build 0)  -->
<svg version="1.1" id="Layer_1" xmlns="http://www.w3.org/2000/svg" xmlns:xlink="http://www.w3.org/1999/xlink" x="0px" y="0px"
	 viewBox="0 0 349.7 62.7" style="enable-background:new 0 0 349.7 62.7;" xml:space="preserve">
<g>
	<path d="M79.6,14c-2.9,0.1-5.1,1.2-6.6,3.3c-1.5,2.1-2.3,5.7-2.3,10.9c0,1.7,0.2,2.9,0.5,3.5c0.3,0.7,0.5,1,0.5,1.1
		c-2.5,0-4.3-0.5-5.5-1.5c-1.2-1-1.8-2.7-1.8-5.1c0-3.2,0.8-6.2,2.4-8.8c1.6-2.7,4.1-4.8,7.6-6.5c3.5-1.6,7.9-2.5,13.3-2.5
		c1.1,0,2.6,0.1,4.4,0.3c3.3,0.3,5.6,0.5,7,0.5c2.4,0,4.5-0.3,6.2-0.8c-0.1,0.4-0.4,1.3-0.8,2.7c-0.4,1.4-1,2.6-1.9,3.6
		c-0.9,1-2.2,1.6-3.8,1.9c-2.7,0-5.9-0.4-9.6-1.3l-2.9,13.6h10L95.1,34h-10l-5.5,25.7h-9.8L79.6,14z"/>
	<path d="M96.6,58c-1.3-1.4-2-3.4-2-6.2c0-1.1,0.2-2.6,0.5-4.4l7.3-34.2l10.1-1.4l-7.9,36.9c-0.2,0.7-0.3,1.4-0.3,2.2
		c0,0.9,0.2,1.6,0.6,1.9c0.4,0.4,1.2,0.6,2.2,0.6c1.3,0,2.6-0.6,3.7-1.7c1.1-1.1,2-2.6,2.5-4.3h2.9c-1.7,4.9-3.9,8.3-6.5,10
		c-2.6,1.8-5.3,2.6-7.9,2.6C99.7,60.1,97.9,59.4,96.6,58z"/>
	<path d="M115.1,57.4c-1.7-1.8-2.6-4.6-2.6-8.3c0-3.4,0.7-6.9,2-10.6c1.3-3.7,3.3-6.9,6-9.4c2.7-2.6,5.8-3.9,9.5-3.9
		c1.9,0,3.3,0.3,4.2,1c0.9,0.6,1.4,1.5,1.4,2.5v0.5l0.8-3.6h9.8l-4.9,23.2c-0.2,0.7-0.3,1.4-0.3,2.2c0,2,0.9,2.9,2.8,2.9
		c1.3,0,2.4-0.6,3.3-1.8c0.9-1.2,1.7-2.7,2.2-4.6h2.9c-1.7,4.9-3.8,8.3-6.3,10c-2.5,1.8-5,2.6-7.5,2.6c-1.9,0-3.5-0.5-4.6-1.6
		c-1.2-1.1-1.9-2.6-2.1-4.7c-1.3,1.9-2.8,3.4-4.4,4.5c-1.6,1.2-3.5,1.7-5.8,1.7C118.9,60.1,116.8,59.2,115.1,57.4z M129.4,51.8
		c1.1-1.1,1.9-2.5,2.3-4.4l3.3-15.4c0-0.6-0.2-1.2-0.7-1.7c-0.5-0.6-1.2-0.9-2.1-0.9c-1.8,0-3.5,1.1-4.9,3.2
		c-1.5,2.1-2.6,4.7-3.4,7.7c-0.8,3-1.2,5.6-1.2,7.9s0.3,3.7,1,4.4c0.7,0.6,1.5,1,2.4,1C127.1,53.5,128.2,52.9,129.4,51.8z"/>
	<path d="M151.5,58.8c-1.5-0.8-2.6-1.9-3.3-3.3c-0.7-1.3-1.1-2.7-1.1-4.2c0-1.5,0.4-2.8,1.1-3.9c0.7-1.1,1.6-1.9,2.6-2.4
		c1.8-3.2,3.3-6.4,4.6-9.7c1.3-3.3,2.6-6.8,3.8-10.6l10.1-1.4c0.2,5.8,0.6,12.1,1.2,18.9c0.2,2.7,0.3,4.7,0.3,5.9
		c0,1-0.1,1.9-0.3,2.6c2.1-1.2,3.8-2.4,4.9-3.4h2.9c-2.9,3.4-6.4,6.2-10.5,8.5c-1.3,1.4-3,2.4-4.9,3.1c-1.9,0.7-3.9,1-5.8,1
		C154.9,60.1,153,59.7,151.5,58.8z M159.1,53.2c1.1-1,1.7-2.6,1.7-4.9c0-1.4-0.1-3.3-0.4-5.7c-0.5-5.2-0.8-8.7-0.9-10.5
		c-1.1,3.6-2.9,7.9-5.5,12.9c1,0.5,1.6,1.3,1.6,2.4c0,0.9-0.3,1.6-0.9,2.3c-0.6,0.7-1.3,1-2.2,1c-1,0-1.6-0.3-1.8-0.9
		c0,1.6,0.3,2.8,1,3.6c0.7,0.8,1.7,1.2,3.2,1.2C156.6,54.7,158,54.2,159.1,53.2z"/>
	<path d="M193.6,57.9c-1.1-1.5-1.6-3.3-1.6-5.5c0-1,0.1-2,0.3-3.2c0.2-1.2,0.5-2.4,0.7-3.5c0.2-1.1,0.4-1.9,0.5-2.2
		c0.4-1.6,0.7-3.2,1-4.7c0.3-1.5,0.5-2.8,0.5-3.8c0-2.3-0.8-3.5-2.5-3.5c-1.1,0-2.1,0.5-3,1.5c-0.9,1-1.6,2.3-2.2,4l-4.9,22.8h-9.8
		l9.9-46.5l10.1-1.4L189.1,29c2.3-2.5,4.9-3.8,8-3.8c2.3,0,4.2,0.6,5.5,1.9s2.1,3.2,2.1,5.8c0,1.3-0.2,2.8-0.5,4.4
		c-0.3,1.6-0.8,3.6-1.4,5.9c-0.4,1.4-0.7,2.8-1,4.1c-0.3,1.3-0.4,2.4-0.4,3.2c0,0.9,0.2,1.6,0.6,2.1c0.4,0.5,1.1,0.8,2.1,0.8
		c1.1,0,1.8-0.1,2.3-0.4c-0.3,2.3-1.1,4.1-2.5,5.3c-1.4,1.2-3.1,1.8-5,1.8C196.4,60.1,194.7,59.4,193.6,57.9z"/>
	<path d="M228,59.7c-1.3-0.8-2-2.1-2-3.9c0-1.2,0.3-2.5,0.9-4c0.8,0.9,1.6,1.5,2.3,1.9c0.7,0.4,1.5,0.5,2.3,0.5c2.3,0,4-1.3,5.1-3.8
		c1.1-2.6,1.7-5.4,1.7-8.5c0-5.8-2.2-8.7-6.5-8.7c-1.2,0-2.3,0.1-3.1,0.2L223,59.7h-9.8l9.3-43.5l10.1-1.4L229.4,30h0.4
		c1.7,0,3.3-0.6,4.9-1.7c1.5-1.1,2.7-2.5,3.6-4.2c0.9-1.7,1.4-3.4,1.4-5.2c0-2.1-0.7-3.8-2.2-5.3c-1.5-1.4-3.7-2.1-6.8-2.1
		c-2.8,0-5.5,0.6-8.1,1.9c-2.6,1.3-4.8,3.1-6.5,5.6c-1.7,2.5-2.5,5.5-2.5,9.1c0,1.7,0.2,2.9,0.5,3.5c0.3,0.7,0.5,1,0.5,1.1
		c-2.4,0-4.2-0.5-5.5-1.5c-1.2-1-1.8-2.6-1.8-4.8c0-3.1,1.2-6,3.5-8.8c2.3-2.8,5.4-5,9.2-6.7c3.8-1.7,7.9-2.6,12.1-2.6
		c3.2,0,5.9,0.5,8.1,1.5c2.2,1,3.8,2.3,4.9,4c1.1,1.6,1.6,3.4,1.6,5.4c0,2.1-0.6,4.1-1.8,6.1c-1.2,2-2.9,3.6-5.1,4.8
		c2.7,0.5,4.8,1.8,6.1,3.8c1.3,2,2,4.4,2,7.2c0,2.6-0.5,5.4-1.5,8.5c-1,3.1-2.6,5.7-4.9,7.9c-2.3,2.2-5.1,3.3-8.6,3.3
		C231,60.8,229.4,60.5,228,59.7z"/>
	<path d="M251.9,57.4c-1.7-1.8-2.6-4.6-2.6-8.3c0-3.4,0.7-6.9,2-10.6c1.3-3.7,3.3-6.9,6-9.4c2.7-2.6,5.8-3.9,9.5-3.9
		c1.9,0,3.3,0.3,4.2,1c0.9,0.6,1.4,1.5,1.4,2.5v0.5l0.8-3.6h9.8L278,48.7c-0.2,0.7-0.3,1.4-0.3,2.2c0,2,0.9,2.9,2.8,2.9
		c1.3,0,2.4-0.6,3.3-1.8c0.9-1.2,1.7-2.7,2.2-4.6h2.9c-1.7,4.9-3.8,8.3-6.3,10c-2.5,1.8-5,2.6-7.5,2.6c-1.9,0-3.5-0.5-4.6-1.6
		c-1.2-1.1-1.9-2.6-2.1-4.7c-1.3,1.9-2.8,3.4-4.4,4.5c-1.6,1.2-3.5,1.7-5.8,1.7C255.8,60.1,253.6,59.2,251.9,57.4z M266.2,51.8
		c1.1-1.1,1.9-2.5,2.3-4.4l3.3-15.4c0-0.6-0.2-1.2-0.7-1.7c-0.5-0.6-1.2-0.9-2.1-0.9c-1.8,0-3.5,1.1-4.9,3.2
		c-1.5,2.1-2.6,4.7-3.4,7.7c-0.8,3-1.2,5.6-1.2,7.9s0.3,3.7,1,4.4c0.7,0.6,1.5,1,2.4,1C263.9,53.5,265.1,52.9,266.2,51.8z"/>
	<path d="M288,57.5c-1.9-1.8-2.8-4.5-2.8-8.2c0-3.1,0.6-6.6,1.9-10.4c1.3-3.8,3.3-7,6-9.8c2.8-2.8,6.3-4.1,10.5-4.1
		c2.7,0,4.7,0.6,5.8,1.8c1.2,1.2,1.7,2.7,1.7,4.5c0,1.6-0.3,2.8-1,3.7c-0.7,0.9-1.5,1.3-2.6,1.3c-0.8,0-1.6-0.3-2.4-0.8
		c0.5-1.5,0.8-2.8,0.8-4c0-0.9-0.2-1.5-0.5-2c-0.3-0.5-0.8-0.8-1.4-0.8c-1.4,0-2.7,1.1-4.1,3.3c-1.4,2.2-2.5,4.9-3.3,8.1
		c-0.9,3.2-1.3,6.1-1.3,8.6c0,2.2,0.4,3.7,1.2,4.5c0.8,0.8,2,1.2,3.8,1.2c2.5,0,4.6-0.6,6.3-1.7c1.8-1.1,3.7-2.9,5.8-5.2h2.3
		c-5.1,8.4-11.3,12.6-18.8,12.6C292.5,60.1,289.9,59.2,288,57.5z"/>
	<path d="M331.6,58.1c-1.5-1.3-2.2-3.3-2.2-5.8c0-1.1,0.1-2.3,0.4-3.6l0.5-2.7c0.2-0.8,0.3-1.6,0.3-2.5c0-2.2-0.8-3.3-2.5-3.3
		c-0.7,0-1.5,0.2-2.3,0.6c-0.8,0.4-1.7,1-2.8,1.9l-3.6,16.9h-9.8l9.9-46.5l10.1-1.4l-5.1,24.1l13.2-10.4h6.8L330.9,35
		c0.7-0.2,1.4-0.3,2.3-0.3c2.5,0,4.3,0.8,5.6,2.3c1.3,1.5,1.9,3.4,1.9,5.7c0,1-0.1,1.8-0.3,2.6l-0.8,3.4c-0.2,0.8-0.3,1.5-0.3,2.2
		c0,1.7,0.9,2.5,2.7,2.5c1,0,1.6-0.1,1.9-0.2c0.3-0.1,0.4-0.2,0.5-0.2c-0.1,1.5-0.5,2.8-1.3,3.8s-1.6,1.8-2.6,2.4
		c-1,0.5-1.8,0.8-2.5,0.8C335.2,60.1,333.1,59.4,331.6,58.1z"/>
</g>
<g>
	<polygon points="245.8,12.7 275.3,25.6 263.8,12.8 275.4,0 	"/>
</g>
<polygon points="343.3,17 260.6,17 260.6,8.5 349.7,8.5 "/>
<g>
	<path d="M16.7,61H0v-8.6c0-1.6,0.1-2.8,0.4-3.7c0.3-0.8,0.8-1.5,1.5-2c0.7-0.5,1.6-0.8,2.7-0.8c0.9,0,1.7,0.2,2.4,0.6
		c0.7,0.4,1.2,0.9,1.6,1.6c0.3,0.4,0.5,1,0.7,1.8c0.2-0.6,0.4-1.1,0.6-1.3c0.1-0.2,0.4-0.5,0.9-0.8c0.4-0.4,0.8-0.6,1-0.7l4.8-2.5
		v5.8l-5.1,2.8c-0.7,0.3-1.1,0.7-1.3,0.9c-0.3,0.4-0.4,0.8-0.4,1.3v0.5h6.8V61z M6.8,55.8v-2.2c0-0.2-0.1-0.7-0.2-1.4
		c-0.1-0.3-0.2-0.6-0.5-0.8c-0.3-0.2-0.6-0.3-1-0.3c-0.5,0-1,0.2-1.2,0.5c-0.3,0.3-0.4,1-0.4,1.9v2.3H6.8z"/>
	<path d="M10.7,44.4c-1.8,0-3.4-0.6-4.6-1.9c-1.2-1.2-1.8-2.9-1.8-5c0-2.4,0.7-4.2,2.1-5.5c1.1-1,2.5-1.5,4.2-1.5
		c1.9,0,3.4,0.6,4.6,1.8s1.8,2.9,1.8,5.1c0,1.9-0.5,3.5-1.5,4.7C14.3,43.6,12.7,44.4,10.7,44.4z M10.7,39.7c1.1,0,1.9-0.2,2.4-0.7
		c0.5-0.4,0.8-1,0.8-1.6c0-0.7-0.3-1.2-0.8-1.6s-1.3-0.6-2.4-0.6c-1,0-1.8,0.2-2.3,0.6c-0.5,0.4-0.8,1-0.8,1.6
		c0,0.7,0.3,1.2,0.8,1.7C8.8,39.5,9.6,39.7,10.7,39.7z"/>
	<path d="M0,28.3v-4.7h8.6l-4-3.5v-5.7l4.2,4.3l7.8-4.6v5.2l-4.8,2.4l1.7,1.7h3.1v4.7H0z"/>
	<path d="M16.7,0v4.3h-2c0.8,0.6,1.4,1.3,1.7,2S17,7.7,17,8.7c0,1.3-0.4,2.3-1.1,3c-0.8,0.7-1.9,1.1-3.5,1.1H4.6V8.1h6.6
		c0.8,0,1.3-0.1,1.6-0.4c0.3-0.3,0.5-0.7,0.5-1.2c0-0.6-0.2-1-0.6-1.4s-1.2-0.5-2.3-0.5H4.6V0H16.7z"/>
</g>
<g>
	<g>
		<path d="M43.3,3c4.3,0,7.6,0.5,10,1.4c2.3,0.9,4.1,2.2,5.6,3.9c0.8,1,1.6,2.1,2.2,3.4L51.2,13c-0.6-1.6-1.3-2.8-2.3-3.7
			C47.3,7.8,45.3,7,43.1,7c-2.6,0-6.3,1-8.8,5.6c-0.8,1.5-2,4.5-2.7,13.6c-0.1,1.3,0.6,2.4,1.7,3c0.4,0.2,0.8,0.3,1.2,0.3
			c0.8,0,1.6-0.3,2.1-0.9c1.7-1.7,3.4-3,5.1-3.8c1.7-0.8,3.6-1.1,5.9-1.1c4.4,0,8.1,1.5,11.1,4.7c3.1,3.2,4.6,7.2,4.6,12.2
			c0,3.4-0.8,6.4-2.4,9.1c-1.5,2.7-3.6,4.7-6.4,6.1c-2.8,1.4-6.5,2.1-10.9,2.1c-5.3,0-9.6-0.9-12.7-2.6c-3-1.7-5.5-4.5-7.3-8.3
			c-1.9-4-2.9-9.4-2.9-16.2c0-9.8,2-17,5.9-21.3C30.8,5.1,36.2,3,43.3,3 M43.4,53.6c3,0,5.6-1.2,7.6-3.5C53,48,54,44.9,54,40.9
			c0-4-1-7.3-3-9.5c-2.1-2.4-4.8-3.6-7.9-3.6c-3.1,0-5.8,1.2-7.9,3.5c-2.1,2.2-3.1,5.4-3.1,9.2c0,3.9,1.1,7.1,3.2,9.5
			C37.5,52.4,40.3,53.6,43.4,53.6 M43.3,0c-7.9,0-14.1,2.5-18.6,7.4C20.2,12.3,18,20.1,18,30.7c0,7.2,1.1,13.1,3.2,17.5
			c2.1,4.4,5,7.6,8.5,9.6c3.6,2,8.3,3,14.2,3c4.9,0,9-0.8,12.2-2.5c3.3-1.6,5.8-4.1,7.6-7.3c1.8-3.2,2.7-6.8,2.7-10.6
			c0-5.8-1.8-10.5-5.4-14.2c-3.6-3.7-8.1-5.6-13.3-5.6c-2.7,0-5.1,0.5-7.1,1.4c-2.1,0.9-4.1,2.4-6,4.4c0.5-6.3,1.3-10.4,2.4-12.4
			c1.5-2.7,3.5-4,6.2-4c1.5,0,2.7,0.5,3.7,1.4c1,0.9,1.7,2.5,2.1,4.8l16.3-2c-0.9-3.2-2.3-5.8-4.1-7.9c-1.8-2.1-4-3.7-6.8-4.8
			C51.7,0.5,48,0,43.3,0L43.3,0z M43.4,50.6c-2.3,0-4.3-0.9-5.9-2.7c-1.6-1.8-2.4-4.3-2.4-7.5c0-3.1,0.8-5.5,2.3-7.2
			c1.5-1.7,3.4-2.5,5.7-2.5c2.2,0,4.1,0.9,5.6,2.6c1.5,1.7,2.2,4.3,2.2,7.6c0,3.2-0.7,5.7-2.2,7.3C47.4,49.8,45.6,50.6,43.4,50.6
			L43.4,50.6z"/>
	</g>
</g>
</svg>
